<?xml version="1.0" encoding="UTF-8"?>
<svg version="1.1" xmlns="http://www.w3.org/2000/svg" width="225" height="225">
<path d="M0 0 C20.08505612 15.98377193 34.02208673 35.80940046 40.16796875 60.91015625 C40.34312012 61.60713623 40.51827148 62.30411621 40.69873047 63.0222168 C42.35951941 70.29131666 42.55178174 77.41145416 42.54296875 84.84765625 C42.54280762 86.11641602 42.54264648 87.38517578 42.54248047 88.69238281 C42.41801646 99.03468677 41.42983122 109.05314118 38.16796875 118.91015625 C37.50796875 119.24015625 36.84796875 119.57015625 36.16796875 119.91015625 C36.04292969 120.75449219 35.91789063 121.59882813 35.7890625 122.46875 C35.00683499 126.80297913 33.30560323 130.12058403 31.23046875 133.97265625 C30.83005371 134.71854004 30.42963867 135.46442383 30.01708984 136.23291016 C15.73184131 162.12803885 -7.42582948 179.82497444 -35.609375 188.12109375 C-36.67285156 188.38148438 -37.73632812 188.641875 -38.83203125 188.91015625 C-39.52756104 189.08530762 -40.22309082 189.26045898 -40.93969727 189.44091797 C-58.18619285 193.38689645 -78.05502409 192.51470231 -94.83203125 186.91015625 C-95.9715625 186.53632813 -97.11109375 186.1625 -98.28515625 185.77734375 C-125.6140117 175.99853528 -147.1350505 156.58021883 -159.64453125 130.53515625 C-163.26140545 122.60621644 -165.76000993 114.36154309 -167.83203125 105.91015625 C-168.09113281 104.85699219 -168.35023438 103.80382812 -168.6171875 102.71875 C-173.92231552 75.77151033 -165.66634701 47.40296908 -150.83203125 24.91015625 C-134.13521104 1.44916581 -109.42016019 -14.69698292 -80.95898438 -19.67529297 C-51.80207594 -23.54072321 -23.74538925 -17.52245966 0 0 Z M-74.83203125 34.91015625 C-79.14680899 44.8807913 -82.82489655 55.02897457 -86.453125 65.26538086 C-87.45900103 68.10321351 -88.46932196 70.93943222 -89.48046875 73.77539062 C-90.13176721 75.60537738 -90.78281748 77.43545248 -91.43359375 79.265625 C-91.73053131 80.10022751 -92.02746887 80.93483002 -92.33340454 81.79472351 C-93.70821331 85.67522426 -95.05637731 89.56131091 -96.34838867 93.47021484 C-97.80735024 97.87544087 -99.37406625 102.2361065 -100.96875 106.59375 C-101.55154826 108.19592136 -102.13422724 109.79813612 -102.71679688 111.40039062 C-103.62405143 113.89169333 -104.53231145 116.38261674 -105.44262695 118.87280273 C-106.32916353 121.29959902 -107.21174967 123.72780205 -108.09375 126.15625 C-108.36869797 126.90514999 -108.64364594 127.65404999 -108.92692566 128.42564392 C-110.3374811 132.07351241 -110.3374811 132.07351241 -110.83203125 135.91015625 C-103.90203125 135.91015625 -96.97203125 135.91015625 -89.83203125 135.91015625 C-89.23390625 134.48703125 -88.63578125 133.06390625 -88.01953125 131.59765625 C-87.68308594 130.79714844 -87.34664062 129.99664062 -87 129.171875 C-85.33031547 124.50904363 -84.13518891 119.688401 -82.83203125 114.91015625 C-70.29203125 115.24015625 -57.75203125 115.57015625 -44.83203125 115.91015625 C-42.52203125 122.51015625 -40.21203125 129.11015625 -37.83203125 135.91015625 C-30.57203125 135.91015625 -23.31203125 135.91015625 -15.83203125 135.91015625 C-18.00165459 127.33640332 -20.82502252 119.09544366 -23.87234497 110.80581665 C-25.32249553 106.86086209 -26.75891021 102.91091476 -28.1953125 98.9609375 C-28.49302048 98.14302231 -28.79072845 97.32510712 -29.09745789 96.48240662 C-31.25158407 90.54918401 -33.35757058 84.60023393 -35.4375 78.640625 C-35.8750058 77.38783752 -35.8750058 77.38783752 -36.3213501 76.10974121 C-37.45621022 72.85687248 -38.58981948 69.60360132 -39.71600342 66.34771729 C-43.38531552 55.52475227 -43.38531552 55.52475227 -47.97045898 45.0690918 C-49.27443211 41.80158418 -49.97876928 38.32320414 -50.83203125 34.91015625 C-58.75203125 34.91015625 -66.67203125 34.91015625 -74.83203125 34.91015625 Z " fill="#1D88E3" transform="translate(175.83203125,27.08984375)"/>
<path d="M0 0 C2.88746635 2.88746635 3.61318159 6.44398819 4.8203125 10.25390625 C5.21559647 11.47798439 5.21559647 11.47798439 5.61886597 12.72679138 C6.17469308 14.45163306 6.72760795 16.17741552 7.27783203 17.90405273 C8.12328661 20.55712332 8.97683017 23.20747878 9.83203125 25.85742188 C10.37026227 27.53109873 10.90803835 29.20492198 11.4453125 30.87890625 C11.70152374 31.67680069 11.95773499 32.47469513 12.22171021 33.29676819 C14 38.881548 14 38.881548 14 40 C5.09 40 -3.82 40 -13 40 C-9.62120189 26.48480756 -9.62120189 26.48480756 -7.7734375 20.95703125 C-7.3815625 19.78205078 -6.9896875 18.60707031 -6.5859375 17.39648438 C-5.98652344 15.62241211 -5.98652344 15.62241211 -5.375 13.8125 C-4.96765625 12.58724609 -4.5603125 11.36199219 -4.140625 10.09960938 C-1.13375235 1.13375235 -1.13375235 1.13375235 0 0 Z " fill="#1F87DE" transform="translate(112,85)"/>
<path d="M0 0 C0.99 0.495 0.99 0.495 2 1 C2 1.99 2 2.98 2 4 C2.66 4 3.32 4 4 4 C4.99 7.3 5.98 10.6 7 14 C7.33 14 7.66 14 8 14 C8.10957031 14.54527344 8.21914062 15.09054688 8.33203125 15.65234375 C10.04800526 25.60875816 10.04800526 25.60875816 15 34 C15.41833995 35.98711479 15.83381283 37.97485913 16.23828125 39.96484375 C17.2362599 43.94140482 18.56643765 47.76356404 19.9375 51.625 C20.31696777 52.69923218 20.31696777 52.69923218 20.70410156 53.79516602 C21.9206901 57.18373211 23.20380314 60.49424661 24.69140625 63.7734375 C26 67 26 67 26 71 C26.66 71.33 27.32 71.66 28 72 C28.4140625 74.06640625 28.4140625 74.06640625 28.625 76.5625 C28.69976562 77.38878906 28.77453125 78.21507812 28.8515625 79.06640625 C28.90054688 79.70449219 28.94953125 80.34257812 29 81 C27.28915585 78.43373377 26.37335719 76.55212227 25.37109375 73.69750977 C25.06285172 72.82621933 24.75460968 71.95492889 24.43702698 71.05723572 C24.10718307 70.11151199 23.77733917 69.16578827 23.4375 68.19140625 C22.91560341 66.71136864 22.91560341 66.71136864 22.38316345 65.20143127 C21.25155678 61.98980655 20.12570875 58.77619623 19 55.5625 C17.8440272 52.27537501 16.68679623 48.98869468 15.52952576 45.70202637 C14.76319692 43.52520409 13.99737759 41.34820236 13.23207092 39.17102051 C11.05948675 32.99319493 8.87116664 26.82152559 6.65234375 20.66015625 C6.41238678 19.99317215 6.17242981 19.32618805 5.92520142 18.63899231 C4.85172482 15.65710499 3.77471729 12.67654895 2.69335938 9.69750977 C2.32919922 8.68615967 1.96503906 7.67480957 1.58984375 6.6328125 C1.27909912 5.77574707 0.96835449 4.91868164 0.64819336 4.03564453 C0 2 0 2 0 0 Z " fill="#2A7DC1" transform="translate(131,80)"/>
<path d="M0 0 C2.56616632 3.84924948 2.55097676 6.4349304 3 11 C2.01 11.495 2.01 11.495 1 12 C2.32 12.33 3.64 12.66 5 13 C5.33 14.65 5.66 16.3 6 18 C5.01 18.33 4.02 18.66 3 19 C1.79117904 21.00016466 1.79117904 21.00016466 1 23 C0.01 23 -0.98 23 -2 23 C-2.12375 22.195625 -2.2475 21.39125 -2.375 20.5625 C-2.58125 19.716875 -2.7875 18.87125 -3 18 C-3.66 17.67 -4.32 17.34 -5 17 C-5.39742136 12.49589123 -4.09041596 9.93963008 -2 6 C-1.30028027 4.01132287 -0.62335603 2.01391949 0 0 Z " fill="#1C88E5" transform="translate(112,89)"/>
<path d="M0 0 C0.66 0.33 1.32 0.66 2 1 C-3.5884465 9.27858694 -9.78654226 16.14456314 -17 23 C-17.33 22.01 -17.66 21.02 -18 20 C-17 18 -17 18 -14 17 C-14.99 16.67 -15.98 16.34 -17 16 C-16.67 14.68 -16.34 13.36 -16 12 C-15.01 12 -14.02 12 -13 12 C-12.67 11.34 -12.34 10.68 -12 10 C-11.34 10 -10.68 10 -10 10 C-9.34 9.01 -8.68 8.02 -8 7 C-6.68 7 -5.36 7 -4 7 C-4.33 6.34 -4.66 5.68 -5 5 C-5.99 5.495 -5.99 5.495 -7 6 C-7 5.01 -7 4.02 -7 3 C-6.34 3 -5.68 3 -5 3 C-4.67 2.34 -4.34 1.68 -4 1 C-3.34 1.66 -2.68 2.32 -2 3 C-1.34 2.01 -0.68 1.02 0 0 Z " fill="#2182D5" transform="translate(199,170)"/>
<path d="M0 0 C-3.06648724 2.04432482 -5.5533301 2.92926401 -9.0625 4 C-10.12597656 4.33 -11.18945312 4.66 -12.28515625 5 C-21.82802617 7.56884826 -30.6005291 8.31104504 -40.5 8.25 C-42.38138672 8.26160156 -42.38138672 8.26160156 -44.30078125 8.2734375 C-51.44068953 8.25848481 -58.072283 7.77023735 -65 6 C-65 5.67 -65 5.34 -65 5 C-63.741875 4.979375 -62.48375 4.95875 -61.1875 4.9375 C-60.47980469 4.92589844 -59.77210937 4.91429687 -59.04296875 4.90234375 C-57 5 -57 5 -54 6 C-38.71103132 7.10118243 -21.72762971 7.42782219 -7.7265625 0.34375 C-4.58311555 -1.20545594 -3.27342054 -1.05904782 0 0 Z " fill="#2D83CA" transform="translate(153,210)"/>
<path d="M0 0 C0.66 0.33 1.32 0.66 2 1 C-0.75167884 9.40529884 -3.72147921 17.7312053 -6.6875 26.0625 C-7.20385656 27.51494534 -7.72013324 28.96741907 -8.23632812 30.41992188 C-9.48996483 33.94694243 -10.74468154 37.47357761 -12 41 C-12.33 41 -12.66 41 -13 41 C-13.23509196 36.18061476 -12.45184478 32.53701494 -11 28 C-10.34 28 -9.68 28 -9 28 C-7.85948394 23.01716284 -6.77774134 18.05531868 -6 13 C-6.66 13 -7.32 13 -8 13 C-7.67 11.68 -7.34 10.36 -7 9 C-5.35 8.67 -3.7 8.34 -2 8 C-1.7834375 6.576875 -1.7834375 6.576875 -1.5625 5.125 C-1 2 -1 2 0 0 Z " fill="#267DC4" transform="translate(80,115)"/>
<path d="M0 0 C0.66 0.66 1.32 1.32 2 2 C1.01 3.485 1.01 3.485 0 5 C1.32 5.33 2.64 5.66 4 6 C4.061875 7.0725 4.12375 8.145 4.1875 9.25 C4.66145959 13.13531961 4.66145959 13.13531961 7.5625 15.4375 C8.366875 15.953125 9.17125 16.46875 10 17 C9.67 17.66 9.34 18.32 9 19 C3.03651266 13.94647258 -2.53105379 8.58288259 -8 3 C-7.34 2.34 -6.68 1.68 -6 1 C-5.01 1.99 -4.02 2.98 -3 4 C-3 3.34 -3 2.68 -3 2 C-2.01 1.34 -1.02 0.68 0 0 Z " fill="#2182D3" transform="translate(38,177)"/>
<path d="M0 0 C0.33 0 0.66 0 1 0 C2.20568053 4.67201205 2.09382426 9.21496292 2 14 C2.66 14.33 3.32 14.66 4 15 C4.40729228 17.32156597 4.74438677 19.6568787 5 22 C5.66 22 6.32 22 7 22 C6.98259766 22.85271484 6.98259766 22.85271484 6.96484375 23.72265625 C6.90776806 28.60670484 7.18043228 33.18503965 8 38 C5.69197887 34.53796831 4.64804143 31.07426251 3.5 27.125 C3.28005371 26.36993164 3.06010742 25.61486328 2.83349609 24.83691406 C-1.97226771 7.83190367 -1.97226771 7.83190367 0 0 Z " fill="#2E83CB" transform="translate(7,115)"/>
<path d="M0 0 C2.71743027 2.71743027 3.50932886 5.86942046 4.6875 9.4375 C4.92533203 10.11876953 5.16316406 10.80003906 5.40820312 11.50195312 C7.12211809 16.63364573 7.12211809 16.63364573 6 20 C4.02 18.68 2.04 17.36 0 16 C0.99 15.67 1.98 15.34 3 15 C3 13.35 3 11.7 3 10 C2.34 9.67 1.68 9.34 1 9 C0.375 6.9375 0.375 6.9375 0 5 C-0.29003906 6.06541016 -0.29003906 6.06541016 -0.5859375 7.15234375 C-0.84632812 8.07144531 -1.10671875 8.99054688 -1.375 9.9375 C-1.63023438 10.85402344 -1.88546875 11.77054688 -2.1484375 12.71484375 C-3 15 -3 15 -5 16 C-3.90301833 10.30860098 -2.45946923 5.25432063 0 0 Z " fill="#2A7DC2" transform="translate(112,85)"/>
<path d="M0 0 C4.27060618 -0.11589162 8.54080984 -0.18714802 12.8125 -0.25 C14.02744141 -0.28351562 15.24238281 -0.31703125 16.49414062 -0.3515625 C18.23920898 -0.37089844 18.23920898 -0.37089844 20.01953125 -0.390625 C21.62985229 -0.4220459 21.62985229 -0.4220459 23.27270508 -0.45410156 C26 0 26 0 27.8112793 1.89941406 C29.84158934 5.48717082 30.2541889 7.98482244 30.5625 12.125 C30.68818359 13.76855469 30.68818359 13.76855469 30.81640625 15.4453125 C30.87699219 16.28835937 30.93757813 17.13140625 31 18 C30.34 17.67 29.68 17.34 29 17 C28.66666667 14.66666667 28.33333333 12.33333333 28 10 C27.34 9.67 26.68 9.34 26 9 C25.40644386 6.35139573 25.25790731 3.70802678 25 1 C21.04081323 1.08057261 17.08320163 1.19343945 13.125 1.3125 C11.99707031 1.33505859 10.86914062 1.35761719 9.70703125 1.38085938 C8.63066406 1.41630859 7.55429688 1.45175781 6.4453125 1.48828125 C4.95281982 1.52755737 4.95281982 1.52755737 3.43017578 1.56762695 C2.62821777 1.71031006 1.82625977 1.85299316 1 2 C0.01 3.485 0.01 3.485 -1 5 C-0.67 3.35 -0.34 1.7 0 0 Z " fill="#2F85C9" transform="translate(100,61)"/>
<path d="M0 0 C0.33 0 0.66 0 1 0 C1.58460539 5.40759988 -0.14060164 9.49440823 -2.125 14.4140625 C-3.21367811 17.17650131 -3.21367811 17.17650131 -3 21 C0.63 21.66 4.26 22.32 8 23 C8 23.33 8 23.66 8 24 C3.05 24 -1.9 24 -7 24 C-5.05577487 15.83425444 -2.76771339 7.92380889 0 0 Z " fill="#3081C5" transform="translate(106,101)"/>
<path d="M0 0 C7.03128878 0.43384548 13.329015 1.74321997 20 4 C20 4.33 20 4.66 20 5 C18.700625 4.979375 17.40125 4.95875 16.0625 4.9375 C14.70834367 4.91600546 13.35243917 4.92851801 12 5 C11.67 5.33 11.34 5.66 11 6 C8.32941149 6.14115161 5.67567762 6.04247107 3 6 C2.87625 5.195625 2.7525 4.39125 2.625 3.5625 C2.315625 2.2940625 2.315625 2.2940625 2 1 C1.34 0.67 0.68 0.34 0 0 Z " fill="#2385D6" transform="translate(127,8)"/>
<path d="M0 0 C1.17911145 3.53733435 0.83104673 3.92853595 -0.75 7.125 C-3.37971679 12.70181318 -5.22058664 18.41819325 -7 24.3125 C-7.99613003 26.98959947 -9.16393391 28.83010371 -11 31 C-10.42258722 25.65023584 -9.13642882 21.06614987 -7.1875 16.0625 C-6.92050293 15.36318359 -6.65350586 14.66386719 -6.37841797 13.94335938 C-4.51742724 9.14036947 -2.45538971 4.53302715 0 0 Z " fill="#2B7FC7" transform="translate(20,60)"/>
<path d="M0 0 C5.08515942 4.46877646 8.88789969 9.99809225 12 16 C11.67 16.66 11.34 17.32 11 18 C9.68 17.67 8.36 17.34 7 17 C7 15.35 7 13.7 7 12 C5.02 11.01 3.04 10.02 1 9 C1.66 8.67 2.32 8.34 3 8 C2.67 7.01 2.34 6.02 2 5 C1.34 4.67 0.68 4.34 0 4 C0 2.68 0 1.36 0 0 Z " fill="#267FCC" transform="translate(193,44)"/>
<path d="M0 0 C0.66 0.33 1.32 0.66 2 1 C0.66666667 5 -0.66666667 9 -2 13 C-3.98 13 -5.96 13 -8 13 C-7.67 11.68 -7.34 10.36 -7 9 C-5.35 8.67 -3.7 8.34 -2 8 C-1.7834375 6.576875 -1.7834375 6.576875 -1.5625 5.125 C-1 2 -1 2 0 0 Z " fill="#1B86E2" transform="translate(80,115)"/>
<path d="M0 0 C4.63720719 3.27530896 8.68542782 6.30435607 12 11 C11.360625 10.67 10.72125 10.34 10.0625 10 C8.23205433 8.92728775 8.23205433 8.92728775 7 9 C5.65210653 9.98028616 4.31787285 10.97971135 3 12 C2.34 11.34 1.68 10.68 1 10 C2.875 6.125 2.875 6.125 4 5 C3.01 4.319375 3.01 4.319375 2 3.625 C1.34 3.08875 0.68 2.5525 0 2 C0 1.34 0 0.68 0 0 Z " fill="#217ECD" transform="translate(176,28)"/>
<path d="M0 0 C0.99 0.33 1.98 0.66 3 1 C0.54429825 2.33838733 -1.91429916 3.67086232 -4.375 5 C-5.42300781 5.57234375 -5.42300781 5.57234375 -6.4921875 6.15625 C-11.7734375 9 -11.7734375 9 -14 9 C-12.63016497 5.83884224 -12.0109362 5.0072908 -9 3 C-6.9921875 2.40234375 -6.9921875 2.40234375 -4.875 1.9375 C-1.24075537 1.41442255 -1.24075537 1.41442255 0 0 Z " fill="#2980C9" transform="translate(167,201)"/>
<path d="M0 0 C-3.00617269 3.00617269 -5.82381598 2.59585316 -10 3 C-10.33 3.99 -10.66 4.98 -11 6 C-11.66 5.34 -12.32 4.68 -13 4 C-15.21072977 3.75746187 -15.21072977 3.75746187 -17.625 3.875 C-18.85089844 3.90207031 -18.85089844 3.90207031 -20.1015625 3.9296875 C-21.04128906 3.96449219 -21.04128906 3.96449219 -22 4 C-15.68598198 -0.20934535 -7.41145544 -0.27967756 0 0 Z " fill="#2E82C7" transform="translate(106,7)"/>
<path d="M0 0 C0.66 0 1.32 0 2 0 C2.66 2.97 3.32 5.94 4 9 C-1.875 6.25 -1.875 6.25 -3 4 C-2.01 4 -1.02 4 0 4 C0 2.68 0 1.36 0 0 Z " fill="#2580D0" transform="translate(115,96)"/>
<path d="M0 0 C1.65 1.65 3.3 3.3 5 5 C2.03 5.66 -0.94 6.32 -4 7 C-4 6.01 -4 5.02 -4 4 C-2.68 3.67 -1.36 3.34 0 3 C0 2.01 0 1.02 0 0 Z " fill="#2180D1" transform="translate(188,39)"/>
<path d="M0 0 C1.32 0.66 2.64 1.32 4 2 C0.7 4.31 -2.6 6.62 -6 9 C-6.33 8.34 -6.66 7.68 -7 7 C-5.824375 6.6596875 -5.824375 6.6596875 -4.625 6.3125 C-1.78125 5.21875 -1.78125 5.21875 -0.6875 2.375 C-0.460625 1.59125 -0.23375 0.8075 0 0 Z " fill="#2881CB" transform="translate(177,192)"/>
<path d="M0 0 C0.66 0.33 1.32 0.66 2 1 C1.54738642 2.43931117 1.08767021 3.87638999 0.625 5.3125 C0.36976562 6.11300781 0.11453125 6.91351563 -0.1484375 7.73828125 C-1 10 -1 10 -3 13 C-2.52060632 8.28596212 -2.03165952 4.33420699 0 0 Z " fill="#3382C5" transform="translate(80,115)"/>
<path d="M0 0 C0.33 0.66 0.66 1.32 1 2 C0.22265625 3.7265625 0.22265625 3.7265625 -0.9375 5.625 C-1.618125 6.73875 -2.29875 7.8525 -3 9 C-3.144375 8.401875 -3.28875 7.80375 -3.4375 7.1875 C-3.8872439 5.43849596 -4.42892341 3.71322977 -5 2 C-3.68 2.33 -2.36 2.66 -1 3 C-0.67 2.01 -0.34 1.02 0 0 Z " fill="#2881CC" transform="translate(205,161)"/>
<path d="M0 0 C4.455 0.99 4.455 0.99 9 2 C9 2.33 9 2.66 9 3 C6.36 3 3.72 3 1 3 C0.67 2.01 0.34 1.02 0 0 Z " fill="#2B7EC6" transform="translate(138,10)"/>
<path d="" fill="#FFFFFF" transform="translate(0,0)"/>
<path d="" fill="#FFFFFF" transform="translate(0,0)"/>
<path d="" fill="#FFFFFF" transform="translate(0,0)"/>
<path d="" fill="#FFFFFF" transform="translate(0,0)"/>
<path d="" fill="#FFFFFF" transform="translate(0,0)"/>
<path d="" fill="#FFFFFF" transform="translate(0,0)"/>
<path d="" fill="#FFFFFF" transform="translate(0,0)"/>
<path d="" fill="#FFFFFF" transform="translate(0,0)"/>
<path d="" fill="#FFFFFF" transform="translate(0,0)"/>
<path d="" fill="#FFFFFF" transform="translate(0,0)"/>
<path d="" fill="#FFFFFF" transform="translate(0,0)"/>
<path d="" fill="#FFFFFF" transform="translate(0,0)"/>
<path d="" fill="#FFFFFF" transform="translate(0,0)"/>
<path d="" fill="#FFFFFF" transform="translate(0,0)"/>
<path d="" fill="#FFFFFF" transform="translate(0,0)"/>
<path d="" fill="#FFFFFF" transform="translate(0,0)"/>
<path d="" fill="#FFFFFF" transform="translate(0,0)"/>
<path d="" fill="#FFFFFF" transform="translate(0,0)"/>
<path d="" fill="#FFFFFF" transform="translate(0,0)"/>
<path d="" fill="#FFFFFF" transform="translate(0,0)"/>
<path d="" fill="#FFFFFF" transform="translate(0,0)"/>
<path d="" fill="#FFFFFF" transform="translate(0,0)"/>
<path d="" fill="#FFFFFF" transform="translate(0,0)"/>
<path d="" fill="#FFFFFF" transform="translate(0,0)"/>
<path d="" fill="#FFFFFF" transform="translate(0,0)"/>
<path d="" fill="#FFFFFF" transform="translate(0,0)"/>
<path d="" fill="#FFFFFF" transform="translate(0,0)"/>
<path d="" fill="#FFFFFF" transform="translate(0,0)"/>
<path d="" fill="#FFFFFF" transform="translate(0,0)"/>
<path d="" fill="#FFFFFF" transform="translate(0,0)"/>
<path d="" fill="#FFFFFF" transform="translate(0,0)"/>
</svg>
